<svg width="5" height="313" viewBox="0 0 5 313" fill="none" xmlns="http://www.w3.org/2000/svg">
<path d="M4.97458 2.98134C5.03971 4.73531 4.97007 7.03447 4.87448 8.78181C4.84483 9.32942 4.71231 9.05213 4.68588 9.43015C4.63435 10.1695 4.69935 10.8583 4.63797 11.5889C4.61698 11.831 4.40706 11.5296 4.38986 11.7835C4.29709 13.1748 4.35056 14.491 4.30594 15.9005C4.08579 22.8427 4.00699 29.6668 3.91134 36.694C3.87999 39.0111 3.68948 41.8277 3.7728 44.221C3.78271 44.5004 3.96696 44.3338 3.98215 44.387C4.21462 45.2207 3.84266 44.9435 3.79324 45.4878C3.59811 47.6484 3.58114 50.0508 3.65225 52.1301C3.68304 53.0147 4.04901 52.1277 3.8436 53.0184C3.82972 53.0803 3.63406 52.8558 3.61319 53.0984C3.56625 53.6485 3.60122 54.6923 3.58572 55.1187C3.55486 55.9404 3.55682 56.0763 3.55459 56.8536C3.54984 57.916 3.45258 59.1798 3.49692 60.3197C3.50696 60.5631 3.70753 60.2409 3.74167 60.629C3.77574 61.0174 3.75874 62.0449 3.71145 62.3913C3.66415 62.7378 3.5065 62.5903 3.47037 62.6516C3.16537 63.1561 3.58779 64.3447 3.59823 64.4976C3.77623 67.2859 3.5356 69.677 3.53628 72.2944C3.53731 74.2814 3.61676 76.406 3.60586 78.2966C3.59211 80.5491 3.48342 82.4582 3.5021 84.6463C3.50384 84.8773 3.73967 84.6067 3.74228 84.8887C3.76972 87.8854 3.74401 90.8612 3.58481 93.8449C3.56863 94.1442 3.36158 93.7585 3.33304 94.0575C3.16287 95.8878 2.7541 98.784 3.65561 99.8711C3.6204 101.111 3.58403 102.616 3.40231 103.725C3.28535 104.44 3.05978 103.746 3.15603 104.624C3.17748 104.823 3.37502 104.565 3.39224 104.862C3.46456 106.113 3.40034 107.48 3.50241 108.717C3.52363 108.969 3.70064 108.9 3.73251 108.972C3.99064 109.571 3.56393 110.569 3.53292 110.787C3.30171 112.443 3.3927 113.653 3.38705 115.196C3.38564 115.554 3.6234 115.131 3.63058 115.475C3.66466 117.263 3.64422 119.114 3.53872 120.864C3.51468 121.253 3.31216 120.895 3.29031 121.081C3.19643 121.902 3.57895 122.083 3.4963 122.87C3.47937 123.036 3.30599 122.942 3.28695 122.973C2.98805 123.446 3.41157 123.857 3.42092 123.979C3.54869 125.52 3.10655 126.504 3.16916 127.992C3.17709 128.17 3.39646 127.769 3.40536 128.269C3.46592 131.603 3.40566 135.129 3.23019 138.429C3.2032 138.942 3.03841 138.576 3.01809 138.608C2.70067 139.134 3.12598 139.475 3.14199 139.642C3.25729 140.962 2.90062 142.195 3.40719 143.092C3.2314 148.681 3.51586 154.245 3.06204 159.789C3.05678 159.859 2.84732 159.733 2.83773 159.873C2.72012 161.566 3.04567 161.241 3.44381 162.362C3.54379 162.644 3.06309 163.502 3.02786 163.578C2.89801 163.855 2.58639 163.568 2.56125 163.661C2.36379 164.428 3.39435 164.303 3.39468 165.337C3.39296 165.369 3.20327 165.234 3.18441 165.32C3.1252 165.59 3.20058 165.858 3.13528 166.122C2.98419 166.726 2.48343 166.941 2.77487 167.864C2.81269 167.98 3.39727 167.802 3.36965 168.726C3.35815 169.094 3.36817 170.724 3.33029 171.181C3.29245 171.637 3.10407 171.324 3.09591 171.356C2.84681 172.585 2.74357 172.119 2.37478 172.735C2.00738 173.351 2.88367 173.18 2.98147 173.431C3.079 173.683 2.87348 174.584 2.80203 174.805C2.73055 175.027 2.61085 174.751 2.5704 174.948C2.30613 176.253 3.00535 175.52 3.14443 175.951C3.47375 176.965 2.8239 177.754 2.76022 178.682C2.74302 178.934 2.89103 178.729 2.90487 178.952C2.95773 179.838 2.75496 180.371 2.94088 181.378C2.97118 181.543 3.36189 182.358 3.07516 182.885C3.03381 182.96 2.87187 182.748 2.8356 183.125C2.78116 183.689 2.74576 184.705 2.79989 185.312C2.83994 185.759 3.10678 185.246 3.02389 185.809C2.98688 186.06 2.83077 185.596 2.77426 186.066C2.71776 186.534 2.72462 187.73 2.73001 188.185C2.73552 188.64 2.93793 188.391 2.95156 188.428C3.02968 188.65 3.12728 189.522 3.12704 189.599C3.15175 193.486 2.81056 197.071 2.92349 200.855C2.93206 201.152 3.1455 200.954 3.14901 201C3.23844 202.016 2.67094 201.215 2.48098 201.925C2.91413 201.822 2.8357 202.242 2.8832 202.958C2.90645 203.303 3.07416 203.115 3.09133 203.146C3.34608 203.658 3.01704 204.015 2.94973 204.106C2.70213 204.445 2.99469 204.814 2.82919 205.045C2.66492 205.275 2.42141 204.745 2.42453 205.432C2.57958 205.624 2.98477 205.114 3.05044 205.636C3.29884 207.603 2.98092 211.276 2.9479 212.858C2.9149 214.437 2.94351 214.947 2.88748 215.867C2.78616 217.529 3.08678 216.92 3.22439 217.952C3.36198 218.987 2.62229 218.484 2.46328 218.633C2.30434 218.779 2.46795 218.938 2.38058 219.12C2.29323 219.301 2.18511 218.909 2.15231 219.335C2.11954 219.761 2.4023 220.926 2.56857 221.077C2.92081 221.396 3.29051 220.871 3.16061 221.998C3.1529 222.063 2.9584 221.853 2.93874 222.101C2.78901 224.073 2.77973 226.122 2.6473 228.091C2.62879 228.362 2.41242 228.12 2.3992 228.278C2.2608 229.919 2.62563 229.333 3.03091 230.232C2.49157 230.03 2.1616 230.528 2.15841 231.774C2.15631 232.523 2.39187 232.394 2.55789 232.878C2.60793 233.024 2.44619 233.554 2.55697 233.65C2.91909 233.966 3.32446 233.467 3.16305 234.752C3.15538 234.808 2.95716 234.629 2.94515 234.823C2.86658 236.082 3.24535 236.233 3.29122 237.593C3.32721 238.66 3.09624 240.557 3.05868 241.771C2.4523 241.746 2.59116 242.893 3.00924 243.358C2.99212 244.146 3.01576 244.997 2.95797 245.759C2.93827 246.021 2.76271 245.849 2.74374 245.882C2.44616 246.389 2.85291 246.732 2.86886 246.902C3.02387 248.746 2.71559 250.248 3.01687 252.007C3.02772 252.07 3.44893 252.171 3.14138 252.641C3.12018 252.672 2.92854 252.091 2.91372 252.918C2.89887 253.746 2.67307 255.307 2.86825 256.456C2.91524 256.734 3.25717 257.438 2.99001 258.002C2.95373 258.078 2.83293 257.995 2.76571 258.104C2.55151 258.455 2.97725 258.647 2.61556 259.059C2.2539 259.472 1.98303 260.33 2.23257 261.489C2.23982 261.526 2.57726 261.8 2.57192 262.165C2.56312 262.747 2.49282 263.573 2.49502 264.18C2.49619 264.471 2.70572 264.285 2.70956 264.335C2.82697 266.291 2.64017 267.683 2.55911 269.779C2.54383 270.163 2.82956 271.267 2.60366 272.01C2.35637 272.827 1.32771 271.988 1.57278 273.865C1.6708 274.622 2.97586 275.58 2.29971 276.94C2.46725 279.579 2.1212 282.019 2.36044 284.664C2.37103 284.783 2.73526 285.16 2.73031 285.439C2.72224 285.855 2.55201 286.083 2.54079 286.379C2.48952 287.621 2.63516 288.758 2.61251 289.956C2.60428 290.411 2.42826 290.252 2.41842 290.794C2.40874 291.337 2.64053 291.698 2.52859 292.433C2.44326 292.987 1.96949 293.542 1.91427 294.279C2.38159 294.307 2.37196 294.812 2.49532 295.711C2.51926 295.884 2.68191 295.699 2.70162 295.781C2.78545 296.113 2.65065 296.421 2.7419 296.737C2.76382 296.814 2.92341 296.818 2.95034 296.88C3.18537 297.414 2.82638 298.295 2.76388 298.446C2.5265 299.025 2.73406 299.296 2.64059 299.74C2.54712 300.184 2.43028 299.52 2.37356 300.038C2.25624 301.113 2.28201 302.493 2.27468 303.583C2.27274 304.019 2.48577 303.722 2.49044 303.784C2.54447 304.684 2.31787 305.594 2.74221 306.093C1.64502 306.717 2.84863 306.636 2.62899 307.922C2.61122 308.024 2.09237 308.153 2.0162 307.764C1.9401 307.375 2.10228 306.785 1.98354 306.245C1.95568 306.117 1.46948 305.385 1.44003 305.285C1.20985 304.502 1.98521 304.391 2.02779 304.35C2.48737 303.881 1.96358 302.986 1.92739 302.75C1.76155 301.672 1.87059 300.756 1.75222 299.855C1.67572 299.265 1.16783 299.207 1.18338 298.744C1.23476 297.205 1.94326 296.668 1.32894 295.217C1.19792 294.906 0.642816 295.215 1.07931 294.101C1.10683 294.031 1.50614 293.203 1.25357 292.725C1.22172 292.665 1.05994 292.667 1.04635 292.588C0.958445 292.057 1.08733 291.703 1.0256 291.125C0.963874 290.547 0.871853 289.852 0.926724 289.192C0.959535 288.794 1.26095 288.284 1.33474 288.094C1.54732 287.556 1.19878 286.98 1.4562 286.647C1.71492 286.311 2.10782 286.967 2.27499 286.087C1.85468 286.054 1.42327 285.979 1.00058 285.927C1.01538 283.996 1.15129 282.097 1.13272 280.161C1.12999 279.921 0.904035 280.166 0.895291 279.909C0.859394 278.823 1.02047 277.874 0.956327 276.748C0.905808 275.877 0.666565 274.921 0.606291 274.009C1.08724 273.452 0.923972 272.1 0.967923 271.117C0.98311 270.773 1.11156 270.796 1.15347 270.551C1.30846 269.628 0.883443 270.061 0.816557 269.808C0.531098 268.721 1.49309 268.628 1.46933 267.348C1.46839 267.28 0.955606 266.451 0.923673 266.337C0.715446 265.611 1.10215 266.216 1.14004 265.762C1.20928 264.933 1.33174 264.357 1.18155 263.384C1.13706 263.1 0.817445 262.42 1.06466 261.869C1.09704 261.796 1.26653 261.836 1.27646 261.778C1.44191 260.722 0.909342 260.694 0.728972 260.091C0.548642 259.487 0.916285 258.555 1.02225 258.365C1.29636 257.869 1.13939 258.746 1.16629 258.773C1.4864 259.088 1.43129 258.408 1.45834 257.889C1.98053 257.814 1.94919 257.087 1.48428 257.35C1.4335 257.38 1.4822 257.785 1.45834 257.889C0.945996 257.433 0.88038 256.635 1.35916 255.753C1.58355 255.34 1.84519 255.73 1.74948 254.477C1.70627 253.907 1.34671 254.127 1.24869 253.625C1.02502 252.478 1.36043 250.987 1.30758 249.804C1.2884 249.375 1.09158 249.793 1.07168 249.5C1.01827 248.721 1.16595 248.035 1.0903 247.253C1.0832 247.182 0.877167 247.355 0.874541 247.112C0.850614 245.269 0.982577 243.663 0.986235 241.739C0.987909 240.809 0.874279 239.146 0.897124 238.183C0.935503 236.514 1.2351 234.46 1.16232 233.033C1.11573 232.103 0.909662 232.307 0.769256 231.909C0.497094 231.14 0.9846 229.778 1.06009 229.595C1.06259 229.589 1.11117 230.39 1.21695 229.962C1.43736 229.714 1.06104 229.604 1.06009 229.595C1.10885 229.474 1.15563 227.875 1.11624 227.558C1.09471 227.385 0.899471 227.482 0.891937 227.392C0.717214 225.254 0.667592 223.112 0.758881 220.943C0.762825 220.905 0.981215 220.962 0.987762 220.873C1.08486 219.617 0.817705 218.813 0.659089 217.778C0.500544 216.742 0.553645 215.921 0.928558 215.308C0.881354 214.527 1.0471 213.407 1.14767 212.762C1.24824 212.117 0.823132 212.027 0.814728 211.97C0.545739 210.2 0.789066 209.177 0.826936 207.341C0.845668 206.468 0.784006 204.736 0.737519 203.791C0.70007 203.044 0.799696 202.594 0.735994 201.906C0.727486 201.813 0.538204 201.907 0.530916 201.878C0.304452 201.11 0.767181 201.479 0.849824 201.321C1.15035 200.746 1.31042 200.39 1.16904 199.407C1.13666 199.18 0.470394 198.519 0.431429 198.105C0.381992 197.567 0.620808 197.77 0.56296 197.207C0.558228 197.159 0.410895 197.169 0.417391 196.822C0.445608 195.209 0.531338 193.45 0.516573 191.773C0.515121 191.545 0.28143 191.838 0.275485 191.507C0.247784 189.955 0.256433 188.253 0.365817 186.741C0.393476 186.368 0.557101 186.602 0.605685 186.521C0.899647 186.025 0.472527 185.321 0.464389 185.205C0.259136 182.436 0.645674 180.317 0.461643 177.494C0.450839 177.341 -0.00704232 176.158 0.385654 175.631C0.411781 175.594 0.813549 175.072 0.538852 174.611C0.521667 174.582 0.31483 174.907 0.335911 174.34C0.356946 173.772 0.218822 172.859 0.446079 172.078C0.517669 171.831 0.918447 171.248 0.598972 170.511C0.576669 170.463 -0.145708 169.325 0.352696 168.919C0.434737 168.853 0.962163 168.922 0.691745 168.043C0.63932 167.875 0.521676 168.18 0.448215 167.737C0.334997 167.059 0.476259 166.16 0.241307 165.326C0.199712 165.181 -0.158272 164.562 0.113439 164.065C0.155993 163.988 0.332075 164.135 0.35178 163.873C0.446304 162.626 0.328523 161.321 0.450352 160.055C0.493161 159.606 0.777816 159.836 0.854098 159.368C0.930354 158.901 1.00371 157.959 0.873629 157.47C0.743492 156.981 0.289818 157.515 0.253514 156.782C0.0958455 153.596 0.361983 150.439 0.400914 147.257C0.406729 146.786 0.24439 147.177 0.241308 146.481C0.229231 143.917 0.0770208 139.491 0.421972 137.266C0.698258 135.483 0.908599 137.727 1.02103 136.365C1.07466 135.707 0.547219 134.996 0.530614 134.837C0.361939 133.287 0.595585 132.21 0.5239 130.815C0.509025 130.527 0.295247 130.809 0.284948 130.564C0.247875 129.727 0.343295 128.846 0.325842 128.046C0.31752 127.687 0.154244 127.753 0.166846 127.423C0.195118 126.632 0.263752 125.933 0.416784 125.162C0.430729 125.092 0.633838 125.566 0.641393 124.981C0.653042 124.034 0.804007 122.859 0.648107 121.77C0.601209 121.447 0.228045 121.434 0.485754 120.74C0.539579 120.594 0.987667 120.78 0.6005 119.971C0.536161 119.835 0.0139434 118.476 0.350562 117.809C0.439156 117.633 0.805829 117.183 0.748204 116.795C0.739009 116.742 0.538569 116.953 0.519018 116.631C0.453602 115.496 0.474987 114.307 0.412207 113.141C0.395046 112.83 0.187631 113.294 0.168678 112.83C0.116252 111.554 0.169063 109.96 0.233985 108.713C0.258314 108.253 0.430131 108.571 0.448828 108.537C0.752953 107.999 0.342454 107.681 0.318519 107.502C0.175193 106.391 0.368021 105.545 0.316993 104.521C0.303431 104.238 0.107701 104.438 0.090248 104.382C-0.0802783 103.799 0.271228 104.233 0.309974 103.864C0.419685 102.829 0.403955 101.676 0.378944 100.629C0.369469 100.245 0.142515 100.677 0.136635 100.332C0.0975269 98.2904 0.119244 96.1681 0.244362 94.1757C0.268332 93.8005 0.443093 94.0366 0.483008 93.9584C0.76227 93.4195 0.381355 92.6297 0.34507 92.448C0.179393 91.6217 0.333938 91.3007 0.305092 90.571C0.161471 87.0062 0.263829 82.6048 0.327065 79.2399C0.40845 74.8551 0.574703 71.4526 0.531532 67.2712C0.529008 67.0055 0.296521 67.2734 0.29136 67.0444C0.235315 64.0866 0.326161 61.1748 0.259012 58.2111C0.253913 57.9679 0.033515 58.3185 0.0179236 57.9282C-0.0156018 57.1275 -0.0036223 56.1133 0.0667517 55.3037C0.10066 54.9089 0.289781 55.4385 0.320047 55.041C0.390952 54.1156 0.406649 53.1236 0.371316 52.1731C0.3558 51.7685 0.130388 52.3789 0.127787 51.8531C0.105424 48.2714 0.0666028 44.7539 0.358499 41.1345C0.378547 40.8864 0.836673 40.6687 0.748818 40.1411C0.621676 40.1014 0.472117 40.1035 0.336222 40.0862C0.263017 34.8722 0.421835 29.7115 0.446391 24.4829C0.447374 24.2625 0.204636 24.6435 0.205302 24.2167C0.208891 21.7465 0.141646 19.3478 0.382914 16.821C0.40651 16.5703 0.833545 16.6989 0.768961 15.9602C0.757175 15.8298 0.700224 14.7171 0.607523 14.4294C0.59354 14.3904 0.394217 14.5934 0.388408 14.2348C0.35814 12.1511 0.403645 9.96757 0.525432 7.8875C0.545468 7.55179 0.757731 7.9093 0.773844 7.67019C0.886522 5.97409 0.725164 4.12922 0.917887 2.50852C1.04765 1.42368 1.41457 1.82531 1.77573 1.24884C1.82669 1.16731 1.83476 0.495542 2.0449 0.460802C2.5733 0.371617 3.15189 0.696999 3.71512 0.563487C3.83643 0.535279 3.70577 -0.36439 3.99893 0.168272C4.01855 0.205484 4.11585 0.857748 4.2153 1.0184C4.28406 1.13025 4.49777 0.928692 4.58578 1.15691C4.67372 1.3851 4.49458 1.63586 4.59799 2.0142C4.70268 2.39237 4.9458 2.22609 4.97458 2.98134ZM1.5972 209.858C1.80135 209.261 1.05362 209.173 1.23251 209.818C1.24205 209.85 1.58718 209.889 1.5972 209.858ZM1.7153 282.108C2.0451 281.327 1.56016 280.793 1.30545 281.344C1.05101 281.895 1.61532 282.346 1.7153 282.108ZM1.95608 290.203C2.21611 289.291 1.15579 289.147 1.37014 290.125C1.38226 290.181 1.94098 290.257 1.95608 290.203ZM1.87858 3.92222C1.88851 3.91397 1.89818 3.43108 1.88834 3.41954C1.65086 3.16241 1.63168 4.128 1.87858 3.92222ZM2.21822 298.237C2.36165 297.952 2.19608 297.132 2.01772 297.486C1.87424 297.771 2.0398 298.591 2.21822 298.237ZM2.39523 178.708C2.40637 178.698 2.41641 178.352 2.35342 178.359C2.15056 178.382 2.20781 178.864 2.39523 178.708ZM2.23043 311.89C2.27034 309.873 3.14622 308.65 3.04738 310.847C3.0295 311.244 2.76807 309.989 2.68911 310.496C2.54525 311.422 3.09519 312.037 2.8005 312.983C2.74656 313.154 2.22621 312.005 2.22921 311.887C2.22962 311.888 2.23002 311.889 2.23043 311.89ZM2.49533 209.514C2.50521 209.502 2.51459 209.023 2.50479 209.011C2.2674 208.752 2.24838 209.717 2.49533 209.514ZM2.85757 158.506C2.87864 158.48 2.89835 157.368 2.87893 157.331C2.49074 156.751 2.44975 159 2.85757 158.506ZM3.0425 241.79C3.28131 242.313 3.30943 242.939 3.00954 243.356C3.02546 242.836 3.02781 242.313 3.0425 241.79Z" fill="#FBEDDC"/>
</svg>
